# xmcd CD database file
# Copyright (C) 1993-1998 Ti Kan
#
# Track frame offsets:
#	150
#	2502
#	19972
#	36077
#	60400
#	71400
#	84640
#	101165
#	117882
#	135805
#	155292
#	176587
#	189430
#	205957
#
# Disc length: 2984 seconds
#
# Revision: 7
# Processed by: cddbd v1.4b41PL1 Copyright (c) Steve Scherf et al.
# Submitted via: NotifyCDPlayer(CDDB) 1.51.3
#
DISCID=ac0ba60e
DTITLE=Baby Jason and the Spankers - Dream Girl
DYEAR=1900
DGENRE=
TTITLE0=Orbit
TTITLE1=Satisfied
TTITLE2=Dig Whatcha Do
TTITLE3=Innocence (In a sense) In A Session Of Sin
TTITLE4=Can't Get Enough
TTITLE5=Folks
TTITLE6=Thief In The Night
TTITLE7=Control
TTITLE8=Sweet Refrain
TTITLE9=Bitchy Woman
TTITLE10=You Ain't Gettin' Your Love Back
TTITLE11=Drunk Blind
TTITLE12=One Love
TTITLE13=Dream Girl
EXTD=
EXTT0=
EXTT1=
EXTT2=
EXTT3=
EXTT4=
EXTT5=
EXTT6=
EXTT7=
EXTT8=
EXTT9=
EXTT10=
EXTT11=
EXTT12=
EXTT13=
PLAYORDER=
